<?xml version="1.0" encoding="UTF-8" standalone="no"?>
<svg
   version="1.1"
   id="Layer_1"
   x="0px"
   y="0px"
   width="248"
   viewBox="0 0 248 248"
   enable-background="new 0 0 1024 1024"
   xml:space="preserve"
   sodipodi:docname="pamuk.svg"
   inkscape:version="1.4.2 (ebf0e940d0, 2025-05-08)"
   didIslop="Yeah, I did in fact, use AI slop"
   height="248"
   xmlns:inkscape="http://www.inkscape.org/namespaces/inkscape"
   xmlns:sodipodi="http://sodipodi.sourceforge.net/DTD/sodipodi-0.dtd"
   xmlns="http://www.w3.org/2000/svg"
   xmlns:svg="http://www.w3.org/2000/svg"><defs
   id="defs7" /><sodipodi:namedview
   id="namedview7"
   pagecolor="#ffffff"
   bordercolor="#000000"
   borderopacity="0.25"
   inkscape:showpageshadow="2"
   inkscape:pageopacity="0.0"
   inkscape:pagecheckerboard="0"
   inkscape:deskcolor="#d1d1d1"
   inkscape:zoom="2.8334655"
   inkscape:cx="137.64064"
   inkscape:cy="121.22964"
   inkscape:window-width="1920"
   inkscape:window-height="1003"
   inkscape:window-x="0"
   inkscape:window-y="0"
   inkscape:window-maximized="1"
   inkscape:current-layer="Layer_1" />







<g
   id="g1"
   transform="matrix(1.2754835,0,0,1.2754835,-35.725686,-40.694122)"><rect
     style="fill:#ffffff;stroke-width:0.286483"
     id="rect1"
     width="157.24426"
     height="154.86627"
     x="45.87096"
     y="51.553268"
     inkscape:label="bg" /><path
     fill="#000000"
     opacity="1"
     stroke="none"
     d="m 104.41589,220.04678 c -9.16724,-0.001 -18.192696,0.0982 -27.214807,-0.0334 -8.755307,-0.12766 -17.171428,-1.76747 -24.6519,-6.67002 -9.777973,-6.40825 -15.291898,-15.61651 -17.535525,-26.94301 -0.689887,-3.48277 -0.77755,-7.01174 -0.780444,-10.54089 -0.02627,-32.03785 -0.189587,-64.07672 0.02263,-96.113084 0.09001,-13.588059 5.281556,-25.077981 16.341434,-33.481048 5.885346,-4.471555 12.622577,-6.916121 19.923732,-7.662396 7.610993,-0.777945 15.262027,-0.281103 22.89369,-0.297946 27.12001,-0.05986 54.24039,-0.073 81.36034,-9.56e-4 17.60194,0.04673 30.127,8.375591 37.86566,23.985294 2.42979,4.901177 3.62888,10.190458 3.62234,15.747472 -0.04,34.043394 0.18997,68.088834 -0.12633,102.129334 -0.12805,13.78063 -6.08976,25.08011 -17.69353,32.92749 -6.55554,4.43334 -13.96626,6.43755 -21.87231,6.73722 -10.45285,0.39623 -20.90718,0.14327 -31.36058,0.17941 -8.30005,0.0287 -16.6005,-0.0934 -24.90083,-0.0982 -5.25009,-0.003 -10.50021,0.0862 -15.89357,0.1346 M 137.12284,83.776996 c -9.57821,-2.09604 -19.04605,-1.62518 -28.37647,1.33359 -1.26378,0.40074 -2.01751,0.0793 -2.86588,-0.79382 -3.9627,-4.07824 -8.14122,-7.92622 -12.7069,-11.325599 -3.94515,-2.937361 -7.935657,-5.821864 -12.68334,-7.387229 -3.804199,-1.254292 -5.847751,-0.325284 -7.39229,3.353132 -2.887283,6.876316 -3.809306,14.139836 -4.085933,21.502656 -0.245228,6.5271 0.551396,12.941264 2.6149,19.166114 0.250988,0.75714 0.304205,1.47166 -0.04135,2.21889 -3.843846,8.31179 -5.330209,17.02781 -4.645051,26.16144 0.325812,4.3433 1.264677,8.5036 2.75783,12.53231 0.166848,0.45017 -6.405943,2.80932 -10.997207,4.79335 -4.867017,2.10318 -9.266808,6.13309 -7.169166,7.8324 1.548845,1.25473 5.524872,-2.5571 10.555975,-5.06449 4.5337,-2.2595 9.981927,-3.9445 10.389882,-4.06294 7.444966,-2.16166 15.0695,-2.80589 22.78501,-2.53373 1.56334,0.0551 3.15159,0.0945 4.67195,0.54329 1.35999,0.4014 1.94822,1.35027 1.69486,2.72645 -0.22605,1.22782 -1.07199,1.73343 -2.26471,1.73467 -0.66818,5.8e-4 -1.34109,0.028 -2.00386,-0.0376 -6.12421,-0.60596 -12.194292,-0.0635 -18.226096,0.94991 -1.731488,0.29088 -3.563334,0.4413 -5.151851,1.43178 0.497926,1.57082 1.6686,2.59035 2.242363,3.92426 -0.439534,0.58155 -1.069322,0.72513 -1.631402,0.94751 -3.289414,1.3014 -6.45975,2.85569 -9.547315,4.56894 -1.958833,1.08691 -3.863359,2.27952 -5.737599,3.50808 -1.110236,0.72779 -1.401526,2.01633 -0.753059,2.84969 0.817678,1.05082 1.710139,0.90317 2.731663,0.19691 4.569731,-3.15939 9.556939,-5.57387 14.512525,-8.04295 4.873192,-2.42802 9.798215,-4.73339 15.029711,-6.3021 2.55769,-0.76692 5.13838,-1.44936 7.80306,-1.74371 1.5472,-0.17092 2.73297,0.56342 2.97206,1.82755 0.23552,1.24525 -0.60514,2.33889 -2.11918,2.7485 -0.18362,0.0497 -0.37622,0.0651 -0.56257,0.10593 -6.42132,1.40846 -12.551112,3.62097 -18.356243,6.70936 -2.780593,1.47929 -5.49248,3.08212 -8.099146,4.85152 -1.263636,0.85775 -1.470123,1.70757 -0.773324,2.77158 0.767702,1.17223 1.723884,0.96669 2.717831,0.32203 0.480492,-0.31165 0.957447,-0.62882 1.433884,-0.94665 6.895598,-4.5999 14.499618,-7.62953 22.375828,-10.0349 1.70824,-0.52168 3.00519,0.0813 3.46088,1.37008 0.41005,1.15966 -0.31579,2.34228 -1.91054,3.07379 -0.47611,0.21839 -0.97343,0.39157 -1.46452,0.5762 -1.83023,0.68805 -3.66593,1.36189 -5.49052,2.06455 -0.51988,0.20021 -1.10633,0.35469 -1.3063,0.9859 0.10315,0.4345 0.46896,0.60591 0.77875,0.81284 3.06628,2.04821 6.31959,3.75423 9.73481,5.1306 10.58477,4.26569 21.53078,5.6156 32.81431,3.82573 8.18906,-1.29898 15.92396,-3.88831 22.88149,-8.52208 0.52871,-0.35212 1.21895,-0.59906 1.3082,-1.56347 -1.45173,-0.83326 -3.07343,-1.36837 -4.65124,-1.99566 -1.28457,-0.51068 -2.60683,-0.94002 -3.85217,-1.53207 -1.25191,-0.59517 -1.88966,-2.06054 -1.39097,-3.09883 0.58483,-1.21767 1.65712,-1.50091 2.90191,-1.19768 0.97185,0.23672 1.95032,0.4707 2.89251,0.80094 7.32082,2.56608 14.36378,5.70027 20.7677,10.15188 1.41776,0.98556 2.41143,0.8622 3.11057,-0.20016 0.63574,-0.96595 0.32681,-1.89253 -1.1041,-2.80086 -3.66583,-2.32721 -7.36703,-4.6026 -11.29949,-6.46074 -4.75733,-2.24787 -9.67749,-4.02574 -14.84905,-5.08789 -1.89895,-0.39001 -2.67531,-1.33538 -2.51059,-2.7169 0.16111,-1.35128 1.05242,-1.94859 3.02319,-1.82565 3.11813,0.19451 6.11417,1.01623 9.02541,2.09337 9.61024,3.55581 18.67784,8.21885 27.39216,13.58595 1.48475,0.91444 2.49549,0.93382 3.17812,-0.0144 0.70121,-0.97398 0.30953,-2.0151 -1.23133,-3.01894 -1.27851,-0.83293 -2.59527,-1.6093 -3.91566,-2.37526 -3.51199,-2.03727 -7.14894,-3.83068 -10.87385,-5.44078 -1.12042,-0.48432 -1.44534,-1.01325 -0.68379,-2.14055 0.53693,-0.79478 1.2938,-1.53229 1.39363,-2.60403 -0.20675,-0.12978 -0.35492,-0.25929 -0.5274,-0.32367 -0.40154,-0.14991 -0.81028,-0.28512 -1.22397,-0.39722 -5.08946,-1.37939 -10.27854,-1.97115 -15.5444,-2.0566 -2.63057,-0.0427 -5.2412,0.23335 -7.86297,0.28968 -1.2086,0.026 -1.99856,-0.59325 -2.22096,-1.80055 -0.23458,-1.27344 0.39243,-2.25375 1.6534,-2.62455 0.96525,-0.28381 1.96667,-0.30414 2.966,-0.38363 8.25377,-0.65649 16.38591,-0.0328 24.33321,2.35635 0.50147,0.15075 4.6129,1.36076 8.51234,3.34185 5.4095,2.74827 10.24122,8.55252 11.07344,7.05719 2.01662,-2.63417 -1.79574,-4.86867 -6.79105,-8.33685 -4.95223,-3.43828 -9.87857,-5.27852 -9.71958,-5.72635 2.85321,-8.03639 3.39833,-16.34795 2.19912,-24.84687 -0.62973,-4.46298 -2.02439,-8.72726 -3.84652,-12.84484 -0.54835,-1.23909 -0.58173,-2.39364 -0.18697,-3.72737 1.47789,-4.9931 2.45474,-10.078554 2.52634,-15.319424 0.0595,-4.35464 -0.18496,-8.68829 -0.92769,-12.96932 -0.75821,-4.37034 -1.67767,-8.731639 -3.80152,-12.691421 -1.45504,-2.71284 -3.37382,-3.466659 -6.34426,-2.635966 -3.82592,1.069923 -7.16533,3.137878 -10.36224,5.395496 -5.70492,4.02872 -10.97493,8.586051 -15.75783,13.681211 -0.85202,0.90762 -1.60409,1.08583 -2.74888,0.66462 -1.42529,-0.52442 -2.92616,-0.84333 -4.62652,-1.3138 z"
     id="path1"
     sodipodi:nodetypes="cssssssssssssssssccscsscsssssssscsssscsccsssssssssscsssscssssscscsscssssssscsssscsssssscscssssssscsssscsssssssc"
     style="stroke-width:0.286483" /><path
     fill="#000000"
     opacity="1"
     stroke="none"
     d="m 102.11306,139.0388 c -7.94751,-0.66832 -15.009636,-7.748 -15.665805,-15.58327 -0.162039,-1.93483 0.719564,-3.29633 2.360815,-4.22398 2.45649,-1.38842 5.11799,-1.75081 7.88773,-1.55842 8.27474,0.57478 15.02986,7.8625 14.96364,16.14286 -0.0275,3.44341 -1.17562,4.7405 -4.57793,5.19514 -1.61339,0.21562 -3.22488,0.31765 -4.96845,0.0277 z"
     id="path3"
     style="stroke-width:0.286483" /><path
     fill="#000000"
     opacity="1"
     stroke="none"
     d="m 144.86545,121.5057 c 4.85126,-3.89257 10.10283,-4.97048 15.87105,-2.69891 3.01837,1.18865 3.9273,3.08137 3.20155,6.24762 -1.98379,8.65493 -9.82632,14.52945 -18.70516,14.01263 -0.2855,-0.0166 -0.57219,-0.013 -0.85768,-0.0297 -4.46172,-0.26174 -5.45757,-1.59503 -5.24839,-6.15303 0.20755,-4.52278 2.18861,-8.33471 5.73863,-11.37856 z"
     id="path4"
     style="stroke-width:0.286483" /><path
     fill="#000000"
     opacity="1"
     stroke="none"
     d="m 129.55062,172.28094 c -1.2801,-0.69745 -2.3421,-1.5256 -3.17618,-2.57378 -0.79342,-0.99708 -1.34656,-0.84749 -2.12862,0.0263 -2.75298,3.0759 -6.26815,4.39477 -10.35394,4.23386 -1.10882,-0.0437 -2.19757,-0.26028 -2.89377,-1.27847 -0.48413,-0.70804 -0.68631,-1.46889 -0.28627,-2.29011 0.41136,-0.84445 1.19474,-1.09021 2.02735,-1.09538 1.48831,-0.009 2.93256,-0.14239 4.3504,-0.6644 4.10779,-1.51238 6.14891,-4.90503 5.5094,-9.21154 -0.12054,-0.81168 -0.47675,-1.41166 -1.15417,-1.87407 -1.30569,-0.89127 -2.45011,-1.9728 -3.53089,-3.12239 -1.41426,-1.50426 -2.3426,-3.23159 -1.6419,-5.31143 0.71848,-2.13255 2.6124,-2.91031 4.6327,-3.01865 2.99624,-0.16067 6.01222,-0.15854 9.00982,-0.0159 1.95993,0.0933 3.54246,1.07477 4.35409,3.0011 0.77522,1.83988 0.0132,3.31078 -1.08797,4.73727 -1.15308,1.4938 -2.62731,2.62622 -4.09363,3.76603 -0.57802,0.44931 -0.90697,0.94235 -0.86866,1.68265 0.0974,1.88059 -0.32583,3.81586 0.74962,5.58113 1.87008,3.06957 4.73024,4.28448 8.16439,4.4295 2.03122,0.0858 2.96444,0.59736 3.12032,1.81381 0.15578,1.21567 -0.9962,2.46351 -2.75362,2.75648 -2.78761,0.46473 -5.38661,-0.2355 -7.94847,-1.57197 z"
     id="path5"
     style="stroke-width:0.286483" /><path
     fill="#000000"
     opacity="1"
     stroke="none"
     d="m 173.79071,83.423166 c 1.7325,7.95142 1.48785,15.708 -0.6342,23.353114 -0.84343,0.0902 -1.00664,-0.38341 -1.23175,-0.71008 -3.42085,-4.96438 -7.7832,-8.984994 -12.55526,-12.603514 -1.49475,-1.13343 -1.52455,-1.32908 -0.22298,-2.62652 3.50919,-3.49806 7.03965,-6.97513 10.58966,-10.43176 1.34375,-1.30839 2.38734,-1.0988 3.21969,0.62205 0.34915,0.72186 0.54306,1.51879 0.83484,2.39671 z"
     id="path6"
     style="stroke-width:0.286483" /><path
     fill="#000000"
     opacity="1"
     stroke="none"
     d="m 75.95669,98.856896 c -0.622956,-5.24351 -0.301231,-10.30542 0.871996,-15.31178 0.204904,-0.87436 0.499352,-1.74691 0.888047,-2.55508 0.842453,-1.75167 1.78752,-1.9016 3.189074,-0.54577 2.398745,2.32051 4.780992,4.65817 7.159183,6.99978 1.25706,1.23773 2.47447,2.51602 3.74168,3.74306 0.71911,0.69631 0.70578,1.18285 -0.13749,1.80937 -2.87133,2.13325 -5.663777,4.36589 -8.163334,6.94166 -1.798248,1.853074 -3.410258,3.853284 -4.863586,5.985584 -0.231062,0.33901 -0.367817,0.79747 -1.086438,0.87769 -0.989419,-2.48756 -1.199167,-5.17211 -1.599132,-7.944514 z"
     id="path7"
     style="stroke-width:0.286483" /></g></svg>
